<mxfile host="Electron" modified="2024-09-15T17:09:23.959Z" agent="Mozilla/5.0 (Windows NT 10.0; Win64; x64) AppleWebKit/537.36 (KHTML, like Gecko) draw.io/24.4.8 Chrome/124.0.6367.207 Electron/30.0.6 Safari/537.36" etag="wHpRM8XrUfBzG5uXDRW8" version="24.4.8" type="device">
  <diagram name="Page-1" id="WNYQP6kyshfXIjWe28n_">
    <mxGraphModel dx="983" dy="82" grid="1" gridSize="10" guides="1" tooltips="1" connect="1" arrows="1" fold="1" page="1" pageScale="1" pageWidth="850" pageHeight="1100" math="0" shadow="0">
      <root>
        <mxCell id="0" />
        <mxCell id="1" parent="0" />
        <mxCell id="ZT4UYDw50LTw-IZosX0--2" value="&lt;font style=&quot;font-size: 24px;&quot;&gt;RabbitMQ&lt;/font&gt;" style="sketch=0;outlineConnect=0;fontColor=#232F3E;gradientColor=none;fillColor=#E7157B;strokeColor=none;dashed=0;verticalLabelPosition=bottom;verticalAlign=top;align=center;html=1;fontSize=12;fontStyle=0;aspect=fixed;pointerEvents=1;shape=mxgraph.aws4.mq_broker;" parent="1" vertex="1">
          <mxGeometry x="340" y="330" width="78" height="69" as="geometry" />
        </mxCell>
        <mxCell id="ZT4UYDw50LTw-IZosX0--4" style="edgeStyle=orthogonalEdgeStyle;rounded=0;orthogonalLoop=1;jettySize=auto;html=1;startArrow=classic;startFill=1;" parent="1" source="ZT4UYDw50LTw-IZosX0--3" target="ZT4UYDw50LTw-IZosX0--2" edge="1">
          <mxGeometry relative="1" as="geometry" />
        </mxCell>
        <mxCell id="ZT4UYDw50LTw-IZosX0--3" value="&lt;font style=&quot;font-size: 24px;&quot;&gt;Django&lt;/font&gt;" style="sketch=0;outlineConnect=0;fontColor=#232F3E;gradientColor=none;fillColor=#E7157B;strokeColor=none;dashed=0;verticalLabelPosition=bottom;verticalAlign=top;align=center;html=1;fontSize=12;fontStyle=0;aspect=fixed;pointerEvents=1;shape=mxgraph.aws4.endpoint;" parent="1" vertex="1">
          <mxGeometry x="100" y="324.5" width="78" height="78" as="geometry" />
        </mxCell>
        <mxCell id="ZT4UYDw50LTw-IZosX0--7" value="" style="sketch=0;outlineConnect=0;fontColor=#232F3E;gradientColor=none;fillColor=#C925D1;strokeColor=none;dashed=0;verticalLabelPosition=bottom;verticalAlign=top;align=center;html=1;fontSize=12;fontStyle=0;aspect=fixed;pointerEvents=1;shape=mxgraph.aws4.rds_postgresql_instance;" parent="1" vertex="1">
          <mxGeometry x="690" y="325.5" width="78" height="78" as="geometry" />
        </mxCell>
        <mxCell id="ZT4UYDw50LTw-IZosX0--10" style="edgeStyle=orthogonalEdgeStyle;rounded=0;orthogonalLoop=1;jettySize=auto;html=1;" parent="1" source="ZT4UYDw50LTw-IZosX0--9" edge="1">
          <mxGeometry relative="1" as="geometry">
            <mxPoint x="690" y="229.0000000000001" as="targetPoint" />
          </mxGeometry>
        </mxCell>
        <mxCell id="ZT4UYDw50LTw-IZosX0--9" value="&lt;font style=&quot;font-size: 16px;&quot;&gt;Logging server&lt;br&gt;&lt;/font&gt;" style="sketch=0;aspect=fixed;pointerEvents=1;shadow=0;dashed=0;html=1;strokeColor=none;labelPosition=center;verticalLabelPosition=bottom;verticalAlign=top;align=center;fillColor=#00188D;shape=mxgraph.mscae.enterprise.database_server" parent="1" vertex="1">
          <mxGeometry x="560" y="189" width="60.8" height="80" as="geometry" />
        </mxCell>
        <mxCell id="ZT4UYDw50LTw-IZosX0--13" style="edgeStyle=orthogonalEdgeStyle;rounded=0;orthogonalLoop=1;jettySize=auto;html=1;" parent="1" source="ZT4UYDw50LTw-IZosX0--11" target="ZT4UYDw50LTw-IZosX0--7" edge="1">
          <mxGeometry relative="1" as="geometry" />
        </mxCell>
        <mxCell id="ZT4UYDw50LTw-IZosX0--11" value="&lt;font style=&quot;font-size: 16px;&quot;&gt;Comments server&lt;br&gt;&lt;/font&gt;" style="sketch=0;aspect=fixed;pointerEvents=1;shadow=0;dashed=0;html=1;strokeColor=none;labelPosition=center;verticalLabelPosition=bottom;verticalAlign=top;align=center;fillColor=#00188D;shape=mxgraph.mscae.enterprise.database_server" parent="1" vertex="1">
          <mxGeometry x="560" y="324.5" width="60.8" height="80" as="geometry" />
        </mxCell>
        <mxCell id="ZT4UYDw50LTw-IZosX0--12" value="&lt;font style=&quot;font-size: 16px;&quot;&gt;Captcha &lt;font style=&quot;font-size: 16px;&quot;&gt;server&lt;br&gt;&lt;/font&gt;&lt;/font&gt;" style="sketch=0;aspect=fixed;pointerEvents=1;shadow=0;dashed=0;html=1;strokeColor=none;labelPosition=center;verticalLabelPosition=bottom;verticalAlign=top;align=center;fillColor=#00188D;shape=mxgraph.mscae.enterprise.database_server" parent="1" vertex="1">
          <mxGeometry x="560" y="460" width="60.8" height="80" as="geometry" />
        </mxCell>
        <mxCell id="ZT4UYDw50LTw-IZosX0--14" style="edgeStyle=orthogonalEdgeStyle;rounded=0;orthogonalLoop=1;jettySize=auto;html=1;entryX=0;entryY=0.5;entryDx=0;entryDy=0;entryPerimeter=0;" parent="1" source="ZT4UYDw50LTw-IZosX0--2" target="ZT4UYDw50LTw-IZosX0--11" edge="1">
          <mxGeometry relative="1" as="geometry" />
        </mxCell>
        <mxCell id="ZT4UYDw50LTw-IZosX0--15" style="edgeStyle=orthogonalEdgeStyle;rounded=0;orthogonalLoop=1;jettySize=auto;html=1;entryX=0;entryY=0.5;entryDx=0;entryDy=0;entryPerimeter=0;" parent="1" source="ZT4UYDw50LTw-IZosX0--2" target="ZT4UYDw50LTw-IZosX0--9" edge="1">
          <mxGeometry relative="1" as="geometry" />
        </mxCell>
        <mxCell id="ZT4UYDw50LTw-IZosX0--16" style="edgeStyle=orthogonalEdgeStyle;rounded=0;orthogonalLoop=1;jettySize=auto;html=1;entryX=0;entryY=0.5;entryDx=0;entryDy=0;entryPerimeter=0;startArrow=classic;startFill=1;" parent="1" source="ZT4UYDw50LTw-IZosX0--2" target="ZT4UYDw50LTw-IZosX0--12" edge="1">
          <mxGeometry relative="1" as="geometry" />
        </mxCell>
        <mxCell id="x9_mW9Ycv9DIIEkNa-1O-6" style="edgeStyle=orthogonalEdgeStyle;rounded=0;orthogonalLoop=1;jettySize=auto;html=1;" edge="1" parent="1" source="x9_mW9Ycv9DIIEkNa-1O-2" target="ZT4UYDw50LTw-IZosX0--3">
          <mxGeometry relative="1" as="geometry" />
        </mxCell>
        <mxCell id="x9_mW9Ycv9DIIEkNa-1O-2" value="" style="outlineConnect=0;dashed=0;verticalLabelPosition=bottom;verticalAlign=top;align=center;html=1;shape=mxgraph.aws3.redis;fillColor=#2E73B8;gradientColor=none;" vertex="1" parent="1">
          <mxGeometry x="109" y="196.5" width="60" height="63" as="geometry" />
        </mxCell>
        <mxCell id="x9_mW9Ycv9DIIEkNa-1O-8" style="edgeStyle=orthogonalEdgeStyle;rounded=0;orthogonalLoop=1;jettySize=auto;html=1;startArrow=classic;startFill=1;endArrow=none;endFill=0;" edge="1" parent="1" source="x9_mW9Ycv9DIIEkNa-1O-3" target="ZT4UYDw50LTw-IZosX0--2">
          <mxGeometry relative="1" as="geometry" />
        </mxCell>
        <mxCell id="x9_mW9Ycv9DIIEkNa-1O-3" value="&lt;font style=&quot;font-size: 16px;&quot;&gt;Gateway&amp;nbsp;&lt;/font&gt;&lt;div&gt;&lt;font style=&quot;font-size: 16px;&quot;&gt;queue consumer&lt;br&gt;&lt;/font&gt;&lt;/div&gt;" style="sketch=0;aspect=fixed;pointerEvents=1;shadow=0;dashed=0;html=1;strokeColor=none;labelPosition=center;verticalLabelPosition=bottom;verticalAlign=top;align=center;fillColor=#00188D;shape=mxgraph.mscae.enterprise.database_server" vertex="1" parent="1">
          <mxGeometry x="240.00000000000003" y="188" width="60.8" height="80" as="geometry" />
        </mxCell>
        <mxCell id="x9_mW9Ycv9DIIEkNa-1O-7" style="edgeStyle=orthogonalEdgeStyle;rounded=0;orthogonalLoop=1;jettySize=auto;html=1;entryX=0.5;entryY=1;entryDx=0;entryDy=0;entryPerimeter=0;" edge="1" parent="1" source="ZT4UYDw50LTw-IZosX0--3" target="x9_mW9Ycv9DIIEkNa-1O-2">
          <mxGeometry relative="1" as="geometry" />
        </mxCell>
        <mxCell id="x9_mW9Ycv9DIIEkNa-1O-9" style="edgeStyle=orthogonalEdgeStyle;rounded=0;orthogonalLoop=1;jettySize=auto;html=1;entryX=1;entryY=0.53;entryDx=0;entryDy=0;entryPerimeter=0;" edge="1" parent="1" source="x9_mW9Ycv9DIIEkNa-1O-3" target="x9_mW9Ycv9DIIEkNa-1O-2">
          <mxGeometry relative="1" as="geometry" />
        </mxCell>
        <mxCell id="x9_mW9Ycv9DIIEkNa-1O-10" value="" style="dashed=0;outlineConnect=0;html=1;align=center;labelPosition=center;verticalLabelPosition=bottom;verticalAlign=top;shape=mxgraph.webicons.mongodb;gradientColor=#DFDEDE" vertex="1" parent="1">
          <mxGeometry x="690" y="185.8" width="80" height="83.2" as="geometry" />
        </mxCell>
        <mxCell id="x9_mW9Ycv9DIIEkNa-1O-13" style="edgeStyle=orthogonalEdgeStyle;rounded=0;orthogonalLoop=1;jettySize=auto;html=1;startArrow=classic;startFill=1;" edge="1" parent="1" source="x9_mW9Ycv9DIIEkNa-1O-12" target="ZT4UYDw50LTw-IZosX0--3">
          <mxGeometry relative="1" as="geometry" />
        </mxCell>
        <mxCell id="x9_mW9Ycv9DIIEkNa-1O-12" value="User" style="shape=umlActor;verticalLabelPosition=bottom;verticalAlign=top;html=1;outlineConnect=0;" vertex="1" parent="1">
          <mxGeometry x="-120" y="291" width="80" height="145" as="geometry" />
        </mxCell>
      </root>
    </mxGraphModel>
  </diagram>
</mxfile>
